<svg xmlns="http://www.w3.org/2000/svg" viewBox="0 0 200 200">
  <defs>
    <linearGradient id="g3" x1="0" x2="1">
      <stop offset="0" stop-color="#6366f1"/>
      <stop offset="1" stop-color="#06b6d4"/>
    </linearGradient>
  </defs>
  <rect width="200" height="200" rx="20" fill="url(#g3)" opacity="0.06"/>
  <g transform="translate(30,38) scale(0.9)" fill="#fff" opacity="0.95">
    <circle cx="40" cy="36" r="12" />
    <path d="M20 70c10-10 60-10 80 0v18c0 8-6 14-14 14H34c-8 0-14-6-14-14V70z" />
    <g transform="translate(82,0)">
      <circle cx="40" cy="46" r="10" />
      <path d="M20 78c10-8 46-8 62 0v14c0 6-5 12-12 12H32c-7 0-12-6-12-12V78z" />
    </g>
  </g>
</svg>